<svg width="736" height="173" viewBox="0 0 736 173" fill="none" xmlns="http://www.w3.org/2000/svg">
<g filter="url(#filter0_d_7_6072)">
<g clip-path="url(#clip0_7_6072)">
<rect x="23" y="19" width="690" height="127" rx="63.5" fill="#BD0F72"/>
<g opacity="0.4">
<path d="M22.9917 -65.1326H712.992V230.566H22.9917V-65.1326Z" fill="#C42780"/>
<path d="M98.7036 -48.303H106.775V213.409H98.7036V-48.303Z" fill="#D1579C"/>
<path d="M50.3123 -48.1292H58.3833V213.583H50.3123V-48.1292Z" fill="#D1579C"/>
<path d="M147.198 -48.303H155.269V213.409H147.198V-48.303Z" fill="#D1579C"/>
<path d="M195.641 -48.303H203.712V213.409H195.641V-48.303Z" fill="#D1579C"/>
<path d="M244.085 -48.303H252.156V213.409H244.085V-48.303Z" fill="#D1579C"/>
<path d="M292.528 -48.2468H300.599V213.465H292.528V-48.2468Z" fill="#D1579C"/>
<path d="M340.971 -48.2468H349.042V213.465H340.971V-48.2468Z" fill="#D1579C"/>
<path d="M389.424 -48.2468H397.495V213.465H389.424V-48.2468Z" fill="#D1579C"/>
<path d="M421.727 -48.2468H429.797V213.465H421.727V-48.2468Z" fill="#D1579C"/>
<path d="M470.138 -48.2468H478.209V213.465H470.138V-48.2468Z" fill="#D1579C"/>
<path d="M518.571 -48.2468H526.642V213.465H518.571V-48.2468Z" fill="#D1579C"/>
<path d="M567.025 -48.2468H575.096V213.465H567.025V-48.2468Z" fill="#D1579C"/>
<path d="M615.509 -48.2468H623.58V213.465H615.509V-48.2468Z" fill="#D1579C"/>
<path d="M663.952 -48.2468H672.023V213.465H663.952V-48.2468Z" fill="#D1579C"/>
<path d="M413.64 -48.2468H421.711V213.465H413.64V-48.2468Z" fill="#AA0E67"/>
<path d="M74.5703 -48.303H82.6412V213.409H74.5703V-48.303Z" fill="#AA0E67"/>
<path d="M123.024 -48.303H131.094V213.409H123.024V-48.303Z" fill="#AA0E67"/>
<path d="M171.415 -48.303H179.486V213.409H171.415V-48.303Z" fill="#AA0E67"/>
<path d="M219.868 -48.303H227.939V213.409H219.868V-48.303Z" fill="#AA0E67"/>
<path d="M268.311 -48.2468H276.382V213.465H268.311V-48.2468Z" fill="#AA0E67"/>
<path d="M316.796 -48.2468H324.867V213.465H316.796V-48.2468Z" fill="#AA0E67"/>
<path d="M365.239 -48.2468H373.31V213.465H365.239V-48.2468Z" fill="#AA0E67"/>
<path d="M445.953 -48.2468H454.024V213.465H445.953V-48.2468Z" fill="#AA0E67"/>
<path d="M494.396 -48.2468H502.467V213.465H494.396V-48.2468Z" fill="#AA0E67"/>
<path d="M542.891 -48.2468H550.962V213.465H542.891V-48.2468Z" fill="#AA0E67"/>
<path d="M591.334 -48.2468H599.405V213.465H591.334V-48.2468Z" fill="#AA0E67"/>
<path d="M639.777 -48.2468H647.848V213.465H639.777V-48.2468Z" fill="#AA0E67"/>
<path d="M106.856 -48.303H122.998V213.409H106.856V-48.303Z" fill="#BD0F72"/>
<path d="M155.299 -48.303H171.441V213.409H155.299V-48.303Z" fill="#BD0F72"/>
<path d="M203.753 -48.303H219.895V213.409H203.753V-48.303Z" fill="#BD0F72"/>
<path d="M252.186 -48.303H268.328V213.409H252.186V-48.303Z" fill="#BD0F72"/>
<path d="M300.639 -48.2468H316.781V213.465H300.639V-48.2468Z" fill="#BD0F72"/>
<path d="M349.082 -48.2468H365.224V213.465H349.082V-48.2468Z" fill="#BD0F72"/>
<path d="M397.525 -48.2468H413.667V213.465H397.525V-48.2468Z" fill="#BD0F72"/>
<path d="M454.064 -48.2468H470.206V213.465H454.064V-48.2468Z" fill="#BD0F72"/>
<path d="M502.497 -48.2468H518.639V213.465H502.497V-48.2468Z" fill="#BD0F72"/>
<path d="M550.951 -48.2468H567.092V213.465H550.951V-48.2468Z" fill="#BD0F72"/>
<path d="M599.393 -48.2468H615.535V213.465H599.393V-48.2468Z" fill="#BD0F72"/>
<path d="M647.837 -48.2468H663.978V213.465H647.837V-48.2468Z" fill="#BD0F72"/>
<path d="M58.4133 -48.303H74.5553V213.409H58.4133V-48.303Z" fill="#BD0F72"/>
<path d="M82.5883 -48.303H98.7302V213.409H82.5883V-48.303Z" fill="#C42780"/>
<path d="M131.042 -48.303H147.184V213.409H131.042V-48.303Z" fill="#C42780"/>
<path d="M179.526 -48.303H195.668V213.409H179.526V-48.303Z" fill="#C42780"/>
<path d="M227.969 -48.303H244.111V213.409H227.969V-48.303Z" fill="#C42780"/>
<path d="M276.412 -48.303H292.554V213.409H276.412V-48.303Z" fill="#C42780"/>
<path d="M324.814 -48.303H340.956V213.409H324.814V-48.303Z" fill="#C42780"/>
<path d="M373.309 -48.303H389.451V213.409H373.309V-48.303Z" fill="#C42780"/>
<path d="M429.838 -48.303H445.98V213.409H429.838V-48.303Z" fill="#C42780"/>
<path d="M478.281 -48.303H494.423V213.409H478.281V-48.303Z" fill="#C42780"/>
<path d="M526.734 -48.303H542.876V213.409H526.734V-48.303Z" fill="#C42780"/>
<path d="M575.167 -48.303H591.309V213.409H575.167V-48.303Z" fill="#C42780"/>
<path d="M623.62 -48.303H639.762V213.409H623.62V-48.303Z" fill="#C42780"/>
<path d="M671.669 -48.303H687.811V213.409H671.669V-48.303Z" fill="#C42780"/>
<g opacity="0.4">
<path opacity="0.4" d="M41.5604 -39.8455H50.1926V205.014H41.5604V-39.8455Z" fill="#AA0E67"/>
<path opacity="0.4" d="M687.793 -39.7214H696.425V205.138H687.793V-39.7214Z" fill="#AA0E67"/>
</g>
</g>
<path d="M274.55 90.3473C275.467 91.0708 277.034 92.0595 279.253 93.3135C281.52 94.5675 283.666 95.1946 285.692 95.1946C287.766 95.1946 288.803 94.3987 288.803 92.8071C288.803 92.0836 288.513 91.4566 287.934 90.9261C287.356 90.3473 286.295 89.6962 284.751 88.9727C283.208 88.2492 282.05 87.6946 281.279 87.3087C280.507 86.8746 279.47 86.1994 278.168 85.283C276.914 84.3184 275.949 83.3296 275.274 82.3168C273.344 79.5676 272.38 76.0708 272.38 71.8264C272.38 67.5821 273.947 64.0129 277.082 61.1191C280.266 58.1769 284.414 56.7059 289.526 56.7059C292.999 56.7059 296.206 57.0917 299.148 57.8634C302.09 58.5869 303.61 59.5515 303.706 60.7573C303.706 60.902 303.706 61.0467 303.706 61.1914C303.706 62.8795 303.176 65.0258 302.114 67.6303C301.053 70.1866 300.306 71.6094 299.872 71.8988C296.785 70.3071 294.012 69.5113 291.552 69.5113C289.14 69.5113 287.934 70.3795 287.934 72.1158C287.934 73.1769 288.827 74.1174 290.611 74.9374C290.997 75.1303 291.552 75.3956 292.275 75.7332C292.999 76.0708 293.819 76.4808 294.735 76.9631C295.7 77.3972 296.713 77.9759 297.774 78.6994C298.883 79.3746 300.065 80.291 301.319 81.4486C303.875 83.8602 305.153 87.0434 305.153 90.9984C305.153 96.1592 303.73 100.379 300.885 103.659C298.039 106.939 293.65 108.627 287.717 108.723C284.824 108.723 282.195 108.482 279.832 108C277.516 107.518 275.491 106.577 273.754 105.178C272.018 103.78 271.15 102.092 271.15 100.114C271.15 98.1367 271.512 96.1833 272.235 94.254C272.959 92.2766 273.73 90.9743 274.55 90.3473ZM332.277 106.842C332.277 107.807 329.89 108.289 325.115 108.289C320.34 108.289 317.952 107.807 317.952 106.842V70.5242H309.271C308.451 70.5242 307.872 69.4149 307.534 67.1962C307.39 66.1351 307.317 65.0499 307.317 63.9406C307.317 62.8313 307.39 61.7461 307.534 60.685C307.872 58.4663 308.451 57.357 309.271 57.357H340.742C341.562 57.357 342.141 58.4663 342.478 60.685C342.623 61.7461 342.695 62.8313 342.695 63.9406C342.695 65.0499 342.623 66.1351 342.478 67.1962C342.141 69.4149 341.562 70.5242 340.742 70.5242H332.277V106.842ZM378.379 108.145C374.183 108.145 371.916 107.469 371.578 106.119L369.191 96.7862H357.688L355.59 105.757C355.3 107.252 352.985 108 348.644 108C346.329 108 344.617 107.879 343.508 107.638C342.398 107.349 341.844 107.132 341.844 106.987L354.649 58.0081C354.649 57.6223 357.953 57.4293 364.561 57.4293C371.168 57.4293 374.472 57.6223 374.472 58.0081L386.988 107.059C386.988 107.397 385.879 107.662 383.66 107.855C381.442 108.048 379.681 108.145 378.379 108.145ZM359.496 87.5981H367.093L363.837 72.6222H363.403L359.496 87.5981ZM404.998 106.987C404.998 107.759 402.707 108.145 398.125 108.145C393.495 108.145 391.18 107.783 391.18 107.059V59.8892C391.18 58.2011 392.072 57.357 393.857 57.357H407.675C420.36 57.357 426.702 62.3007 426.702 72.1882C426.702 75.1785 426.124 77.9036 424.966 80.3634C423.809 82.775 422.169 84.7042 420.047 86.1512L429.162 101.344C428.776 102.502 427.522 103.828 425.4 105.323C422.506 107.397 420.119 108.434 418.238 108.434C416.357 108.434 414.958 107.759 414.042 106.408L407.241 90.5643H404.998V106.987ZM404.998 70.1624V81.0145H405.36C409.942 81.0145 412.233 79.1094 412.233 75.2991C412.233 73.5628 411.775 72.2846 410.858 71.4647C409.99 70.5965 408.543 70.1624 406.518 70.1624H404.998ZM455.027 106.842C455.027 107.807 452.64 108.289 447.865 108.289C443.09 108.289 440.702 107.807 440.702 106.842V70.5242H432.021C431.201 70.5242 430.622 69.4149 430.284 67.1962C430.14 66.1351 430.067 65.0499 430.067 63.9406C430.067 62.8313 430.14 61.7461 430.284 60.685C430.622 58.4663 431.201 57.357 432.021 57.357H463.492C464.312 57.357 464.89 58.4663 465.228 60.685C465.373 61.7461 465.445 62.8313 465.445 63.9406C465.445 65.0499 465.373 66.1351 465.228 67.1962C464.89 69.4149 464.312 70.5242 463.492 70.5242H455.027V106.842Z" fill="white"/>
</g>
<rect x="17.0057" y="13.0057" width="701.989" height="138.989" rx="69.4943" stroke="white" stroke-width="11.9887"/>
</g>
<defs>
<filter id="filter0_d_7_6072" x="0.111353" y="0.111231" width="735.777" height="172.778" filterUnits="userSpaceOnUse" color-interpolation-filters="sRGB">
<feFlood flood-opacity="0" result="BackgroundImageFix"/>
<feColorMatrix in="SourceAlpha" type="matrix" values="0 0 0 0 0 0 0 0 0 0 0 0 0 0 0 0 0 0 127 0" result="hardAlpha"/>
<feOffset dy="4"/>
<feGaussianBlur stdDeviation="5.45"/>
<feComposite in2="hardAlpha" operator="out"/>
<feColorMatrix type="matrix" values="0 0 0 0 0 0 0 0 0 0 0 0 0 0 0 0 0 0 0.25 0"/>
<feBlend mode="normal" in2="BackgroundImageFix" result="effect1_dropShadow_7_6072"/>
<feBlend mode="normal" in="SourceGraphic" in2="effect1_dropShadow_7_6072" result="shape"/>
</filter>
<clipPath id="clip0_7_6072">
<rect x="23" y="19" width="690" height="127" rx="63.5" fill="white"/>
</clipPath>
</defs>
</svg>
