<svg width="107" height="107" viewBox="0 0 107 107" fill="none" xmlns="http://www.w3.org/2000/svg">
<rect x="1" y="1" width="105" height="105" rx="52.5" fill="url(#paint0_linear_30_7374)"/>
<rect x="1" y="1" width="105" height="105" rx="52.5" stroke="url(#paint1_linear_30_7374)" stroke-width="2"/>
<g filter="url(#filter0_i_30_7374)">
<path d="M48.798 64.6753C44.9877 64.6753 43.0826 64.2171 43.0826 63.3007V60.5515C43.0826 58.3811 44.8913 55.6078 48.5086 52.2316C49.8591 50.9775 51.089 49.5547 52.1983 47.9631C53.3559 46.3714 53.9346 44.9245 53.9346 43.6222C53.9346 41.2107 52.5359 40.0049 49.7385 40.0049C46.9893 40.0049 44.216 40.9213 41.4186 42.7541C39.5858 40.9213 38.3077 38.8473 37.5842 36.5322C37.2948 35.7605 37.1501 35.0853 37.1501 34.5065C37.1501 33.8795 37.2707 33.3007 37.5118 32.7702C37.8977 31.5162 39.6823 30.3345 42.8655 29.2252C46.097 28.1158 49.4974 27.5612 53.0665 27.5612C58.4684 27.5612 62.5198 28.7187 65.2208 31.0338C67.9218 33.349 69.2722 36.5081 69.2722 40.5113C69.2722 42.3441 68.814 44.1528 67.8976 45.9374C67.0295 47.6737 65.9443 49.2171 64.642 50.5676C63.388 51.8698 62.134 53.0997 60.88 54.2573C57.8414 57.1512 56.3221 59.3457 56.3221 60.8409V63.0113C56.3221 63.5901 55.4298 64.0241 53.6453 64.3135C51.8607 64.5547 50.2449 64.6753 48.798 64.6753ZM55.888 79.2894C55.888 79.5788 53.8864 79.7235 49.8832 79.7235C45.9282 79.7235 43.9507 79.6029 43.9507 79.3617V68.0032C43.9507 67.6174 45.9282 67.4245 49.8832 67.4245C53.8864 67.4245 55.888 67.545 55.888 67.7862V79.2894Z" fill="#9D420F"/>
</g>
<defs>
<filter id="filter0_i_30_7374" x="37.1501" y="27.5613" width="32.1221" height="56.1621" filterUnits="userSpaceOnUse" color-interpolation-filters="sRGB">
<feFlood flood-opacity="0" result="BackgroundImageFix"/>
<feBlend mode="normal" in="SourceGraphic" in2="BackgroundImageFix" result="shape"/>
<feColorMatrix in="SourceAlpha" type="matrix" values="0 0 0 0 0 0 0 0 0 0 0 0 0 0 0 0 0 0 127 0" result="hardAlpha"/>
<feOffset dy="4"/>
<feGaussianBlur stdDeviation="2"/>
<feComposite in2="hardAlpha" operator="arithmetic" k2="-1" k3="1"/>
<feColorMatrix type="matrix" values="0 0 0 0 0 0 0 0 0 0 0 0 0 0 0 0 0 0 0.25 0"/>
<feBlend mode="normal" in2="shape" result="effect1_innerShadow_30_7374"/>
</filter>
<linearGradient id="paint0_linear_30_7374" x1="14.5" y1="-1.98802e-06" x2="131" y2="173.5" gradientUnits="userSpaceOnUse">
<stop stop-color="#FFE53B"/>
<stop offset="1" stop-color="#DC5B11"/>
</linearGradient>
<linearGradient id="paint1_linear_30_7374" x1="26" y1="-9.9044e-07" x2="74" y2="119" gradientUnits="userSpaceOnUse">
<stop stop-color="white"/>
<stop offset="1" stop-color="white" stop-opacity="0"/>
</linearGradient>
</defs>
</svg>
